PathFileType	4	(X/Y/Z)	C:\Users\Hakeem\Desktop\Python Projects\BasketballMotionAnalysis\Sports2D_Results\free_throw_Sports2D\free_throw_Sports2D_m_person00.trc
DataRate	CameraRate	NumFrames	NumMarkers	Units	OrigDataRate	OrigDataStartFrame	OrigNumFrames
30.0	30.0	6	22	m	30.0	77	90
Frame#	Time	Hip			RHip			RKnee			RAnkle			RBigToe			RSmallToe			RHeel			LHip			LKnee			LAnkle			LBigToe			LSmallToe			LHeel			Neck			Head			Nose			RShoulder			RElbow			RWrist			LShoulder			LElbow			LWrist			
		X1	Y1	Z1	X2	Y2	Z2	X3	Y3	Z3	X4	Y4	Z4	X5	Y5	Z5	X6	Y6	Z6	X7	Y7	Z7	X8	Y8	Z8	X9	Y9	Z9	X10	Y10	Z10	X11	Y11	Z11	X12	Y12	Z12	X13	Y13	Z13	X14	Y14	Z14	X15	Y15	Z15	X16	Y16	Z16	X17	Y17	Z17	X18	Y18	Z18	X19	Y19	Z19	X20	Y20	Z20	X21	Y21	Z21	X22	Y22	Z22
77	2.595505617977528	2.803350796321891	0.7607600442246875	0.0301	2.767202723465129	0.7775994279196358	0.0301	2.566986547269286	0.45716708285047736	0.129	2.3112146177186115	0.1436305609304661	0.023	2.4279507686796205	0.030979693884782777	0.2179	2.3809857901679	0.04040444451423733	0.1804	2.2516220476393602	0.10272146861561539	-0.0119	2.817352265502428	0.7534797030029248	0.0301	2.6199778045542	0.4447731005295966	0.129	2.406198883662732	0.15485738958572354	0.023	2.5299627254124757	0.01997052581456789	0.2179	2.524782379875342	0.04463254627229862	0.1804	2.354504325257104	0.11454200881199152	-0.0119	3.0620590817062774	1.2572665795394902	0.0008	3.2067879993095	1.4793274055062857	0.0655	3.231306242134039	1.3355549372397668	0.1076	2.9895976920387333	1.224216712199023	-0.01275	2.770375827773243	1.130946675078847	0.0702	2.542646589698097	1.0652392718761101	0.1076	3.024591206813982	1.2002956432733585	-0.01275	2.820286267491093	1.0470772698016853	0.0702	2.6250890395442834	0.9129983049471921	0.1076
78	2.629213483146067	2.8000288529865416	0.7585937847566565	0.0301	2.7582505997266855	0.7733374839525717	0.0301	2.561614075717415	0.45626516267660827	0.129	2.3097344112657807	0.1431947457853594	0.023	2.430455084411032	0.028923186933250206	0.2179	2.382098570903466	0.037338780769629154	0.1804	2.248780251582617	0.10457431345291124	-0.0119	2.8144765013630195	0.7457175515388343	0.0301	2.6137986936070963	0.4451272168020557	0.129	2.4022072867766675	0.15336841298810297	0.023	2.5325367111725425	0.018831978169714665	0.2179	2.5235790432010115	0.04573689411781697	0.1804	2.353542790888962	0.11467003208762665	-0.0119	3.062543104137345	1.256357250329708	0.0008	3.201172145672554	1.4796165190521673	0.0655	3.2304301909157473	1.3365434424085914	0.1076	2.9852844085218275	1.21545985254956	-0.01275	2.7722574956330446	1.092666508316168	0.0702	2.5589775519218723	0.9915200554277057	0.1076	3.025552973920464	1.195752737622195	-0.01275	2.843475491675309	1.0199864831810068	0.0702	2.6556732143063737	0.8897395248335714	0.1076
79	2.662921348314607	2.796134239907508	0.7583485524346507	0.0301	2.750481079029128	0.7679300272376576	0.0301	2.5575332847461234	0.4567769780348994	0.129	2.3082542641080024	0.144621656115407	0.023	2.431043686730619	0.025590266096592828	0.2179	2.380638580215222	0.03257355456411643	0.1804	2.2458428814823415	0.10698684998123177	-0.0119	2.810690020598402	0.7383564879361352	0.0301	2.610068308536992	0.4417650748248908	0.129	2.4003970147364893	0.15245811631473094	0.023	2.5335298483091035	0.016864491132979425	0.2179	2.5202341927336014	0.046002350140455915	0.1804	2.351853537673466	0.11400124146434192	-0.0119	3.0606146898545967	1.2572775458462728	0.0008	3.1978648836265267	1.4799450483956713	0.0655	3.230402802070223	1.3385399367836612	0.1076	2.980003950962369	1.2084224728779525	-0.01275	2.7825203129492158	1.0521366093422424	0.0702	2.593680846895895	0.9151335514168354	0.1076	3.022082760730019	1.1935657578473542	-0.01275	2.865532045495173	0.9993287349282762	0.0702	2.7193653163066376	0.8581289457171285	0.1076
80	2.696629213483146	2.787880578593884	0.7564680273235548	0.0301	2.744088463983904	0.760132177613878	0.0301	2.554440126100608	0.45740448119054017	0.129	2.3081445828051517	0.1476261095151823	0.023	2.4269769047568084	0.02238637634588412	0.2179	2.3749501944090134	0.030250844752486832	0.1804	2.2450720562331985	0.10886792254354614	-0.0119	2.8037181933813318	0.7300498609469348	0.0301	2.6081832855377587	0.435676578329431	0.129	2.3995678157901192	0.1512873954220759	0.023	2.5293303168696415	0.017244163004161494	0.2179	2.5133060738745585	0.04549925149901207	0.1804	2.349670221846812	0.11268971251676624	-0.0119	3.0571243114766125	1.2587049451784496	0.0008	3.1960804811854016	1.4793081745103427	0.0655	3.228977365494751	1.3396849122232157	0.1076	2.9735390975569476	1.2031230250694913	-0.01275	2.803866471361515	1.0132638873898994	0.0702	2.647698462865704	0.8419728328039503	0.1076	3.0134358401927197	1.1935775998621008	-0.01275	2.875358091875653	0.9846545456361141	0.0702	2.7887577041918066	0.809704912407085	0.1076
81	2.730337078651685	2.77612597431578	0.7528160326604474	0.0301	2.7400082761617175	0.7527130511838873	0.0301	2.5524322281328744	0.4567165603420267	0.129	2.309005099678147	0.15023949434101183	0.023	2.421152737718389	0.019586390363292464	0.2179	2.3676180122954373	0.03141969965526932	0.1804	2.2447296071336758	0.10970078624185108	-0.0119	2.795129760132049	0.7234868353376761	0.0301	2.607329824454105	0.4296964422475171	0.129	2.3981152234445156	0.14965482182185136	0.023	2.522067482192407	0.020034666178242694	0.2179	2.50580841062431	0.044716435417435696	0.1804	2.348206738576697	0.11114178375655108	-0.0119	3.0534731199445693	1.2601324869311086	0.0008	3.192812484763219	1.4791228396455853	0.0655	3.2258964607493303	1.3392699444074572	0.1076	2.968899850183178	1.1985227205515356	-0.01275	2.832830125761625	0.9788180070252546	0.0702	2.7176754354729997	0.7737534703993387	0.1076	3.001206647609017	1.1972918445972158	-0.01275	2.87725655843404	0.9738432920048973	0.0702	2.827167989305256	0.7604307048489047	0.1076
82	2.764044943820225	2.7664258496087717	0.7512518024366684	0.0301	2.7387110139332482	0.7503952010318252	0.0301	2.5524828922071143	0.4552275196002605	0.129	2.3082519436910824	0.14951287270219202	0.023	2.4201206010274685	0.016221488879741352	0.2179	2.366021133884163	0.03167919746698214	0.1804	2.2422051250400563	0.10893355734979215	-0.0119	2.7888498757399782	0.724142003992841	0.0301	2.6082940890405126	0.42680202759435704	0.129	2.39687083622487	0.1484416800460873	0.023	2.517823780065842	0.021572242918342	0.2179	2.5032346604551807	0.043463433530193614	0.1804	2.347604328854295	0.10997064158219201	-0.0119	3.0502208012900556	1.261849952501168	0.0008	3.1887989787600817	1.479898808844124	0.0655	3.2219923904720065	1.3377226742733845	0.1076	2.969123508834246	1.1944837932367967	-0.01275	2.8653951513495506	0.9511322741381013	0.0702	2.799404862476966	0.714696599502767	0.1076	2.9876893926965264	1.2046775210043275	-0.01275	2.8826705420510135	0.9654519397082533	0.0702	2.8457589217686152	0.7267866629039901	0.1076
